<?xml version="1.0" encoding="utf-8"?>
<!-- Generator: Adobe Illustrator 16.0.0, SVG Export Plug-In . SVG Version: 6.00 Build 0)  -->
<!DOCTYPE svg PUBLIC "-//W3C//DTD SVG 1.1//EN" "http://www.w3.org/Graphics/SVG/1.1/DTD/svg11.dtd">
<svg version="1.1" id="Layer_1" xmlns:xml="http://www.w3.org/XML/1998/namespace"
	 xmlns="http://www.w3.org/2000/svg" xmlns:xlink="http://www.w3.org/1999/xlink" x="0mm" y="0mm" width="15mm" height="27.6mm"
	 viewBox="0 0 15 27.6" enable-background="new 0 0 15 27.6" xml:space="preserve">
<g id="silkscreen">
	<line fill="none" stroke="#FFFFFF" stroke-width="0.05" x1="1" y1="0" x2="1" y2="6.5"/>
	<line fill="none" stroke="#FFFFFF" stroke-width="0.05" x1="14" y1="0" x2="14" y2="6.5"/>
	<line fill="none" stroke="#FFFFFF" stroke-width="0.05" x1="1" y1="26.0" x2="1" y2="26.9"/>
	<line fill="none" stroke="#FFFFFF" stroke-width="0.05" x1="14" y1="26.0" x2="14" y2="26.9"/>
	<line fill="none" stroke="#FFFFFF" stroke-width="0.05" x1="1" y1="26.9" x2="1.5" y2="26.9"/>
	<line fill="none" stroke="#FFFFFF" stroke-width="0.05" x1="14" y1="26.9" x2="13.5" y2="26.9"/>
</g>
<g id="copper0">
	<g id="copper1">
		<circle id="connector0pin" fill="#FFBF00" stroke="#FFBF00" stroke-width="0.2" cx="1" cy="7.1" r="0.5"/>
		<circle id="connector1pin" fill="#FFBF00" stroke="#FFBF00" stroke-width="0.2" cx="1" cy="8.6" r="0.5"/>
		<circle id="connector2pin" fill="#FFBF00" stroke="#FFBF00" stroke-width="0.2" cx="1" cy="10.1" r="0.5"/>
		<circle id="connector3pin" fill="#FFBF00" stroke="#FFBF00" stroke-width="0.2" cx="1" cy="11.6" r="0.5"/>
		<circle id="connector4pin" fill="#FFBF00" stroke="#FFBF00" stroke-width="0.2" cx="1" cy="13.1" r="0.5"/>
		<circle id="connector5pin" fill="#FFBF00" stroke="#FFBF00" stroke-width="0.2" cx="1" cy="14.6" r="0.5"/>
		<circle id="connector6pin" fill="#FFBF00" stroke="#FFBF00" stroke-width="0.2" cx="1" cy="16.1" r="0.5"/>
		<circle id="connector7pin" fill="#FFBF00" stroke="#FFBF00" stroke-width="0.2" cx="1" cy="17.6" r="0.5"/>
		<circle id="connector8pin" fill="#FFBF00" stroke="#FFBF00" stroke-width="0.2" cx="1" cy="19.1" r="0.5"/>
		<circle id="connector9pin" fill="#FFBF00" stroke="#FFBF00" stroke-width="0.2" cx="1" cy="20.6" r="0.5"/>
		<circle id="connector10pin" fill="#FFBF00" stroke="#FFBF00" stroke-width="0.2" cx="1" cy="22.1" r="0.5"/>
		<circle id="connector11pin" fill="#FFBF00" stroke="#FFBF00" stroke-width="0.2" cx="1" cy="23.6" r="0.5"/>
		<circle id="connector12pin" fill="#FFBF00" stroke="#FFBF00" stroke-width="0.2" cx="1" cy="25.1" r="0.5"/>
		<circle id="connector33pin" fill="#FFBF00" stroke="#FFBF00" stroke-width="0.2" cx="14" cy="7.1" r="0.5"/>
		<circle id="connector32pin" fill="#FFBF00" stroke="#FFBF00" stroke-width="0.2" cx="14" cy="8.6" r="0.5"/>
		<circle id="connector31pin" fill="#FFBF00" stroke="#FFBF00" stroke-width="0.2" cx="14" cy="10.1" r="0.5"/>
		<circle id="connector30pin" fill="#FFBF00" stroke="#FFBF00" stroke-width="0.2" cx="14" cy="11.6" r="0.5"/>
		<circle id="connector29pin" fill="#FFBF00" stroke="#FFBF00" stroke-width="0.2" cx="14" cy="13.1" r="0.5"/>
		<circle id="connector28pin" fill="#FFBF00" stroke="#FFBF00" stroke-width="0.2" cx="14" cy="14.6" r="0.5"/>
		<circle id="connector27pin" fill="#FFBF00" stroke="#FFBF00" stroke-width="0.2" cx="14" cy="16.1" r="0.5"/>
		<circle id="connector26pin" fill="#FFBF00" stroke="#FFBF00" stroke-width="0.2" cx="14" cy="17.6" r="0.5"/>
		<circle id="connector25pin" fill="#FFBF00" stroke="#FFBF00" stroke-width="0.2" cx="14" cy="19.1" r="0.5"/>
		<circle id="connector24pin" fill="#FFBF00" stroke="#FFBF00" stroke-width="0.2" cx="14" cy="20.6" r="0.5"/>
		<circle id="connector23pin" fill="#FFBF00" stroke="#FFBF00" stroke-width="0.2" cx="14" cy="22.1" r="0.5"/>
		<circle id="connector22pin" fill="#FFBF00" stroke="#FFBF00" stroke-width="0.2" cx="14" cy="23.6" r="0.5"/>
		<circle id="connector21pin" fill="#FFBF00" stroke="#FFBF00" stroke-width="0.2" cx="14" cy="25.1" r="0.5"/>
		<circle id="connector13pin" fill="#FFBF00" stroke="#FFBF00" stroke-width="0.2" cx="2.27" cy="26.9" r="0.5"/>
		<circle id="connector14pin" fill="#FFBF00" stroke="#FFBF00" stroke-width="0.2" cx="3.77" cy="26.9" r="0.5"/>
		<circle id="connector15pin" fill="#FFBF00" stroke="#FFBF00" stroke-width="0.2" cx="5.27" cy="26.9" r="0.5"/>
		<circle id="connector16pin" fill="#FFBF00" stroke="#FFBF00" stroke-width="0.2" cx="6.77" cy="26.9" r="0.5"/>
		<circle id="connector17pin" fill="#FFBF00" stroke="#FFBF00" stroke-width="0.2" cx="8.27" cy="26.9" r="0.5"/>
		<circle id="connector18pin" fill="#FFBF00" stroke="#FFBF00" stroke-width="0.2" cx="9.77" cy="26.9" r="0.5"/>
		<circle id="connector19pin" fill="#FFBF00" stroke="#FFBF00" stroke-width="0.2" cx="11.27" cy="26.9" r="0.5"/>
		<circle id="connector20pin" fill="#FFBF00" stroke="#FFBF00" stroke-width="0.2" cx="12.77" cy="26.9" r="0.5"/>
	</g>
</g>
<g id="keepout">
</g>
<g id="soldermask">
</g>
<g id="outline">
</g>
</svg>
